<svg width="89" height="88" viewBox="0 0 89 88" fill="none" xmlns="http://www.w3.org/2000/svg">
<path d="M40.489 85.6348C39.215 85.4972 38.7676 85.2925 38.6643 84.8855L36.7937 84.9874C37.0679 86.0296 38.1046 86.5741 40.3704 86.8187C42.7181 87.0721 44.0498 86.5898 44.1657 85.5161C44.2678 84.5697 43.4957 83.9616 41.5199 83.6747L39.6441 83.3986C38.9645 83.2977 38.7833 83.186 38.8078 82.9586C38.8373 82.6856 39.3778 82.6242 40.8975 82.7883C42.0077 82.9081 42.5522 83.151 42.6506 83.6035L44.5849 83.5085C44.2822 82.3895 43.293 81.8317 41.0089 81.5851C38.3518 81.2983 37.0111 81.7796 36.8824 82.9717C36.7842 83.8816 37.5014 84.4009 39.3934 84.6972L41.2611 84.9632L41.5282 85.0068C42.1376 85.1141 42.3202 85.2151 42.2985 85.4158C42.2681 85.6979 41.7538 85.7713 40.489 85.6348ZM35.9859 80.9707L34.1639 80.3305L33.5298 82.1352C33.1688 83.1628 32.1676 83.4998 30.8464 83.0356C29.9138 82.7079 29.5846 82.1266 29.8576 81.3494L30.6495 79.0957L28.8275 78.4555L27.9082 81.0719C27.3954 82.5312 28.026 83.6356 29.7617 84.2454C30.8842 84.6398 31.997 84.5652 32.8381 84.104L31.8885 86.8068L33.7104 87.4469L35.9859 80.9707ZM24.3917 75.6303C22.1533 74.1702 20.4118 74.1597 19.4867 75.5779C18.5716 76.9807 19.2884 78.5957 21.5115 80.0458C23.7269 81.4909 25.5091 81.5061 26.4242 80.1033C27.3393 78.7004 26.6071 77.0755 24.3917 75.6303ZM23.6217 76.8108C24.8865 77.6359 25.2334 78.3103 24.7684 79.0232C24.3033 79.7361 23.5464 79.6904 22.2815 78.8653C21.0167 78.0402 20.6774 77.3709 21.1425 76.658C21.6075 75.945 22.3568 75.9858 23.6217 76.8108ZM18.8324 71.301L17.7181 70.0262L14.1196 70.8741L15.4473 67.4282L14.3389 66.1603L8.89239 67.5781L10.2055 69.0804L13.4356 68.1169L12.2113 71.3751L13.3738 72.7051L16.7408 71.8286L15.3736 74.9929L16.753 76.571L18.8324 71.301ZM12.3227 63.5573L11.4312 61.8442L9.88049 62.6511C8.93868 63.1412 7.99367 62.6734 7.31768 61.3744C7.15713 61.0659 7.03328 60.7486 6.97571 60.4793L5.35481 61.2506C5.38504 61.3483 5.4533 61.5191 5.50823 61.6247C6.08282 62.7289 7.03992 63.438 8.0745 63.6219L7.0418 64.314L7.85722 65.881L12.3227 63.5573ZM8.67736 54.3369C8.00748 52.0058 7.24419 51.0729 6.12258 50.9476L6.33301 52.906C6.72158 52.9658 7.05555 53.4983 7.40186 54.7035C7.76082 55.9526 7.68904 56.6969 7.1754 57.0636L5.47922 51.1611C5.30197 51.1739 5.1587 51.2056 4.93879 51.2688C3.41699 51.7061 2.93815 53.4531 3.62825 55.8545C4.33858 58.3264 5.73714 59.5148 7.29413 59.0674C8.8951 58.6073 9.40285 56.8615 8.67736 54.3369ZM4.84844 55.4944C4.51729 54.342 4.55652 53.6832 5.03871 53.3066L6.1914 57.3178C5.60042 57.2495 5.19223 56.6907 4.84844 55.4944ZM7.27605 45.633C7.16572 43.2101 6.6399 42.1255 5.57803 41.7432L5.328 43.6969C5.69207 43.8453 5.89327 44.4408 5.95031 45.6934C6.00943 46.9917 5.76678 47.6991 5.18206 47.9364L4.90269 41.8014C4.7273 41.7728 4.5806 41.7703 4.35202 41.7807C2.77027 41.8527 1.8989 43.4408 2.01256 45.9368C2.12956 48.506 3.21397 49.9867 4.83229 49.913C6.49633 49.8373 7.39555 48.2571 7.27605 45.633ZM3.28303 45.8698C3.22849 44.6721 3.41961 44.0404 3.97607 43.786L4.16593 47.9552C3.60694 47.7516 3.33965 47.1133 3.28303 45.8698ZM7.27736 38.5718L0.459238 37.776L0.235352 39.6942L7.05347 40.49L7.27736 38.5718ZM6.78348 26.8673L6.92868 26.555C7.37342 25.6334 7.68243 25.3395 8.06152 25.3648L8.54451 23.5548C7.46865 23.4924 6.62954 24.3092 5.69463 26.3876C4.72592 28.5411 4.77162 29.9566 5.75656 30.3997C6.62464 30.7901 7.44209 30.2446 8.32738 28.455L9.17137 26.7572C9.47801 26.1425 9.64033 26.0047 9.849 26.0986C10.0994 26.2112 9.99015 26.7442 9.36312 28.1381C8.90505 29.1564 8.50533 29.5988 8.0446 29.5522L7.53532 31.4206C8.69298 31.4797 9.53001 30.7121 10.4724 28.617C11.5688 26.1797 11.5269 24.7558 10.4334 24.264C9.59871 23.8885 8.88266 24.4094 8.01447 26.1164L7.18258 27.8096L7.05839 28.05C6.76739 28.5961 6.61481 28.7384 6.43069 28.6556C6.17194 28.5392 6.26159 28.0275 6.78348 26.8673ZM12.6048 24.0395L13.7764 22.5043L12.2557 21.3438C11.3899 20.6831 11.3785 19.6267 12.2281 18.5135C12.8277 17.7277 13.4824 17.5941 14.1372 18.0938L16.0362 19.543L17.2078 18.0078L15.0032 16.3254C13.7736 15.387 12.5284 15.6457 11.4124 17.1082C10.6906 18.054 10.4179 19.1354 10.5968 20.0778L8.31942 18.3399L7.14784 19.8751L12.6048 24.0395ZM21.2536 14.654C23.3294 12.9706 23.873 11.3161 22.8065 10.0009C21.7516 8.7 19.9946 8.88748 17.9331 10.5593C15.8786 12.2253 15.3181 13.9172 16.373 15.2181C17.428 16.519 19.1992 16.32 21.2536 14.654ZM20.3658 13.5592C19.1929 14.5104 18.4447 14.634 17.9085 13.9729C17.3724 13.3118 17.6479 12.6052 18.8208 11.654C19.9938 10.7028 20.7349 10.585 21.271 11.2461C21.8072 11.9072 21.5388 12.608 20.3658 13.5592ZM27.0935 10.6865L28.6496 10.0192L28.9516 6.33443L31.8208 8.65923L33.3686 7.99548L33.6978 2.37705L31.864 3.16344L31.7855 6.53327L29.063 4.36467L27.4395 5.06088L27.236 8.53409L24.6468 6.2585L22.7205 7.08457L27.0935 10.6865ZM36.4535 6.88635L38.3585 6.56992L38.0721 4.84541C37.8982 3.79807 38.6359 3.04464 40.0805 2.8047C40.4236 2.74771 40.7636 2.72834 41.0375 2.75708L40.8067 0.97693C40.7044 0.975368 40.5209 0.987303 40.4035 1.0068C39.1756 1.21075 38.2047 1.90085 37.7091 2.82745L37.3712 1.63105L35.6287 1.92048L36.4535 6.88635ZM46.3606 6.26284C48.7847 6.34153 49.907 5.90178 50.3708 4.8729L48.4425 4.47148C48.2663 4.82289 47.6569 4.9771 46.4036 4.93642C45.1047 4.89425 44.4183 4.59725 44.2273 3.99582L50.3654 4.19508C50.4076 4.02246 50.4215 3.87639 50.4289 3.6477C50.4803 2.06514 48.9649 1.07274 46.4676 0.99167C43.8971 0.908223 42.3365 1.87403 42.2839 3.49317C42.2298 5.15806 43.7352 6.17761 46.3606 6.26284ZM46.4355 2.2635C47.6338 2.3024 48.2487 2.54214 48.459 3.11672L44.2877 2.98131C44.5342 2.43987 45.1914 2.22311 46.4355 2.2635ZM55.0697 7.60379C57.4094 8.24281 58.6031 8.07547 59.293 7.18229L57.5104 6.34439C57.2575 6.64532 56.6289 6.65392 55.4193 6.32356C54.1656 5.98114 53.5669 5.533 53.5206 4.90364L59.445 6.52169C59.5261 6.36358 59.5735 6.22473 59.6338 6.004C60.051 4.47656 58.8072 3.15962 56.3968 2.50131C53.9158 1.82371 52.1737 2.40104 51.7469 3.9638C51.308 5.57071 52.5357 6.91172 55.0697 7.60379ZM56.0705 3.73098C57.2271 4.04687 57.7696 4.42275 57.8408 5.03044L53.8147 3.93084C54.1802 3.46137 54.8697 3.40302 56.0705 3.73098ZM61.7963 9.78582L64.6672 3.55058L62.913 2.74291L60.0422 8.97816L61.7963 9.78582ZM73.0619 12.9194L73.3143 13.1536C74.0545 13.8603 74.2389 14.2448 74.0983 14.5977L75.6719 15.6142C76.0623 14.6097 75.5433 13.56 73.8534 12.0309C72.1024 10.4466 70.7415 10.0546 70.0169 10.8554C69.3782 11.5612 69.6458 12.5069 71.0762 13.8998L72.4319 15.2253C72.9225 15.7062 73.0036 15.903 72.8501 16.0727C72.6659 16.2763 72.1924 16.0084 71.059 14.9828C70.231 14.2337 69.9331 13.7172 70.1192 13.2932L68.4982 12.2337C68.0857 13.3171 68.5585 14.3497 70.262 15.891C72.2438 17.6841 73.6115 18.0823 74.4159 17.1932C75.03 16.5145 74.7547 15.673 73.3976 14.3217L72.0425 13.0092L71.852 12.817C71.4219 12.3721 71.3335 12.1832 71.4689 12.0335C71.6593 11.8231 72.1185 12.0658 73.0619 12.9194ZM73.9665 19.3326L75.0685 20.9185L76.6394 19.827C77.5338 19.2054 78.5427 19.5186 79.3418 20.6685C79.9059 21.4803 79.8323 22.1444 79.1559 22.6144L77.1942 23.9776L78.2962 25.5635L80.5736 23.9809C81.8438 23.0983 81.9794 21.8338 80.9296 20.3231C80.2506 19.346 79.3049 18.7549 78.353 18.6362L80.7056 17.0014L79.6035 15.4155L73.9665 19.3326ZM80.2438 30.4573C81.2041 32.9513 82.61 33.9792 84.1902 33.3708C85.7532 32.769 86.1173 31.04 85.1636 28.563C84.2132 26.0946 82.777 25.0391 81.2139 25.6409C79.6509 26.2428 79.2934 27.9889 80.2438 30.4573ZM81.5592 29.9508C81.0165 28.5415 81.13 27.7917 81.9243 27.4859C82.7186 27.18 83.3056 27.6602 83.8482 29.0695C84.3909 30.4788 84.2742 31.2201 83.4798 31.5259C82.6855 31.8317 82.1018 31.3601 81.5592 29.9508ZM82.2082 37.2191L82.3613 38.9054L85.7718 40.3327L82.6733 42.3418L82.8256 44.0189L88.0665 46.0704L87.8861 44.0833L84.7059 42.966L87.6105 41.048L87.4507 39.2888L84.2109 38.0206L87.1759 36.2626L86.9864 34.1752L82.2082 37.2191ZM82.9354 47.3096L82.6542 49.2202L84.3837 49.4748C85.4341 49.6293 85.9259 50.5621 85.7127 52.0109C85.6621 52.355 85.5765 52.6847 85.4654 52.9366L87.2309 53.2612C87.2637 53.1642 87.3084 52.9858 87.3258 52.8681C87.507 51.6366 87.1468 50.5012 86.416 49.7461L87.6585 49.7902L87.9157 48.0426L82.9354 47.3096ZM80.4865 56.917C79.6631 59.1983 79.7348 60.4016 80.5702 61.1604L81.5474 59.4503C81.2676 59.1742 81.3091 58.5469 81.7348 57.3675C82.176 56.145 82.6704 55.5839 83.3015 55.5879L81.2166 61.3645C81.3677 61.458 81.5023 61.5163 81.7176 61.594C83.2069 62.1315 84.6188 60.9967 85.467 58.6464C86.3401 56.2273 85.9034 54.4447 84.3796 53.8947C82.8128 53.3292 81.3782 54.4462 80.4865 56.917ZM84.2672 58.2231C83.8602 59.3509 83.4423 59.8617 82.8309 59.8843L84.2477 55.9586C84.6866 56.3603 84.6898 57.0523 84.2672 58.2231ZM76.5255 64.784C75.1943 66.8114 74.9842 67.9984 75.6203 68.9306L76.9684 67.4946C76.7604 67.1609 76.9466 66.5605 77.6348 65.5124C78.3482 64.426 78.9595 63.9952 79.5723 64.1458L76.2015 69.2794C76.3268 69.4055 76.4442 69.4935 76.6355 69.6191C77.959 70.4882 79.596 69.7126 80.9675 67.624C82.3791 65.4741 82.3688 63.6388 81.0146 62.7497C79.6221 61.8354 77.9672 62.5882 76.5255 64.784ZM79.899 66.9333C79.2409 67.9356 78.7157 68.3353 78.1158 68.2151L80.4065 64.7264C80.7399 65.219 80.5822 65.8928 79.899 66.9333ZM72.3686 70.515L73.677 69.0946L78.7257 73.7455L77.4173 75.1659L72.3686 70.515Z" fill="white"/>
</svg>
